<?xml version="1.0" encoding="utf-8"?>
<!-- Generator: Adobe Illustrator 18.1.0, SVG Export Plug-In . SVG Version: 6.00 Build 0)  -->
<svg version="1.1" xmlns="http://www.w3.org/2000/svg" xmlns:xlink="http://www.w3.org/1999/xlink" x="0px" y="0px"
	 viewBox="0 0 818.7 166" enable-background="new 0 0 818.7 166" xml:space="preserve"  >
<g id="Layer_1">
	<g>
		<path fill="#010101" d="M78.7,60.7v58h-17V67.1c-2.5-1.4-5.2-2.2-8.2-2.2c-9,0-16.3,7.4-16.3,16.3v37.5H20V21.3h17.2v37.2
			c4.2-6,10.6-9.9,18.9-9.9C65.5,48.6,73.8,53.5,78.7,60.7z"/>
		<path fill="#010101" d="M177.3,50.6v68.1h-15.7l-1.4-5.6c-3.8,4.6-9.7,7.6-17.6,7.6c-13.3,0-24.5-12.1-24.5-24.5V50.6h17v41.6
			c0,6.5,4.8,12.3,11.6,12.3c6,0,10.5-1.1,13.5-6.7V50.6H177.3z"/>
		<path fill="#010101" d="M242.7,66.3v30c0,3.8,3,6.8,6.8,6.8h5v15.7h-8.2c-11.3,0-20.7-9.1-20.7-20.4v-32h-8.9V50.6h4.8
			c3,0,5.4-2.5,5.4-5.4V31.6h15.7v19.1h15.9v15.7H242.7z"/>
		<path fill="#010101" d="M324.6,120.8c-17.7,0-32.6-16.1-32.6-36.1c0-20.2,14.8-36.1,32.6-36.1c20,0,28.7,19.2,28.7,19.2l-14.6,8.3
			c0,0-3-11.2-14.2-11.2c-9.7,0-15.5,8.7-15.5,19.8c0,10.9,5.9,19.8,15.5,19.8c11,0,14.2-11,14.2-11l14.4,8.4
			C353.2,101.8,344.6,120.8,324.6,120.8z"/>
		<path fill="#010101" d="M450.2,60.7v58h-17V67.1c-2.5-1.4-5.2-2.2-8.2-2.2c-9,0-16.3,7.4-16.3,16.3v37.5h-17.2V21.3h17.2v37.2
			c4.2-6,10.6-9.9,18.9-9.9C437,48.6,445.3,53.5,450.2,60.7z"/>
		<path fill="#010101" d="M491.1,30.9c0-6,4.8-10.9,10.9-10.9c6,0,10.9,4.9,10.9,10.9c0,6.1-4.9,10.9-10.9,10.9
			C495.8,41.8,491.1,37,491.1,30.9z M510.5,50.6h-17.3v68.1h17.3V50.6z"/>
		<path fill="#010101" d="M576.1,63.3c-4.2,0-6.9,2.2-6.9,5.3s1.9,5.3,5.3,6.7l12.5,5c7.6,3.1,15,8,15,20.2
			c0,11.4-9.8,20.3-24.8,20.3c-21.4,0-26.8-15.8-26.8-15.8l14.8-7.5c0,0,2.3,8.3,10.8,8.3c6.3,0,8.6-2.7,8.6-5.7
			c0-2.7-1.5-5.4-6.7-7.5l-10.4-4.1c-11.2-4.4-15.4-11.6-15.4-21.3c0-9.5,9.4-18.7,22.6-18.7c17.4,0,24.5,14.7,24.5,14.7l-13.4,8.4
			C585.9,71.7,582.7,63.3,576.1,63.3z"/>
		<path fill="#010101" d="M637.4,84.7c0-20.2,16.2-36.1,33.9-36.1s33.9,15.9,33.9,36.1c0,20-16.2,36.1-33.9,36.1
			S637.4,104.7,637.4,84.7z M687.9,84.7c0-11-6.9-19.5-16.6-19.5s-16.6,8.4-16.6,19.5c0,10.9,6.9,19.5,16.6,19.5
			S687.9,95.6,687.9,84.7z"/>
		<path fill="#010101" d="M798.7,60.7v58h-17.3V67.1c-2.5-1.4-5.2-2.2-8.2-2.2c-9,0-16.3,7.4-16.3,16.3v37.5h-16.9V50.6h15.5
			l1.8,7.4c4.2-5.6,10.5-9.4,18.5-9.4C785.2,48.6,793.7,53.5,798.7,60.7z"/>
	</g>
</g>
<g id="Layer_2">
</g>
<g id="Layer_3">
</g>
<g id="Layer_4">
</g>
</svg>
