<?xml version="1.0" encoding="utf-8"?>
<!-- Generator: Adobe Illustrator 18.1.0, SVG Export Plug-In . SVG Version: 6.00 Build 0)  -->
<svg version="1.1" xmlns="http://www.w3.org/2000/svg" xmlns:xlink="http://www.w3.org/1999/xlink" x="0px" y="0px"
	 viewBox="0 0 818.7 166" enable-background="new 0 0 818.7 166" xml:space="preserve" >
<g id="Layer_1">
	<g>
		<path fill="#010101" d="M20,50.7h17v74.9c0,11.3-9.4,20.4-20.7,20.4H8.1v-15.7h5c3.8,0,6.8-3,6.8-6.8V50.7z M17.5,30.9
			c0-6,4.8-10.9,10.9-10.9c6,0,10.9,4.9,10.9,10.9c0,6.1-4.9,10.9-10.9,10.9C22.3,41.8,17.5,37,17.5,30.9z"/>
		<path fill="#010101" d="M134.9,111c0,0-8.9,9.8-24.4,9.8c-19.8,0-35.8-16.2-35.8-36.1c0-20,16.1-36.1,35.8-36.1
			c9.4,0,17.7,3.5,24.1,9.4v22.5v10.9H91.3c2.7,7.8,10.4,13.4,19.2,13.4c8.7,0,12.4-4.6,12.4-4.6L134.9,111z M91.2,78.4h27.9v-12
			c-2.2-1.2-5-1.8-8.6-1.8C101.6,64.7,93.8,70.5,91.2,78.4z"/>
		<path fill="#010101" d="M198.1,63.3c-4.2,0-6.9,2.2-6.9,5.3s1.9,5.3,5.3,6.7l12.5,5c7.6,3.1,15,8,15,20.2
			c0,11.4-9.8,20.3-24.8,20.3c-21.4,0-26.8-15.8-26.8-15.8l14.8-7.5c0,0,2.3,8.3,10.8,8.3c6.3,0,8.6-2.7,8.6-5.7
			c0-2.7-1.5-5.4-6.7-7.5l-10.4-4.1c-11.2-4.4-15.4-11.6-15.4-21.3c0-9.5,9.4-18.7,22.6-18.7c17.4,0,24.5,14.7,24.5,14.7l-13.4,8.4
			C207.9,71.8,204.8,63.3,198.1,63.3z"/>
		<path fill="#010101" d="M285.9,63.3c-4.2,0-6.9,2.2-6.9,5.3s1.9,5.3,5.3,6.7l12.5,5c7.6,3.1,15,8,15,20.2
			c0,11.4-9.8,20.3-24.8,20.3c-21.4,0-26.8-15.8-26.8-15.8l14.8-7.5c0,0,2.3,8.3,10.8,8.3c6.3,0,8.6-2.7,8.6-5.7
			c0-2.7-1.5-5.4-6.7-7.5l-10.4-4.1c-11.2-4.4-15.4-11.6-15.4-21.3c0-9.5,9.4-18.7,22.6-18.7c17.4,0,24.5,14.7,24.5,14.7l-13.4,8.4
			C295.7,71.8,292.5,63.3,285.9,63.3z"/>
	</g>
</g>
<g id="Layer_2">
</g>
<g id="Layer_3">
</g>
<g id="Layer_4">
</g>
</svg>
